<svg width="274" height="257" viewBox="0 0 274 257" fill="none" xmlns="http://www.w3.org/2000/svg">
<path d="M87.7881 57.0753H185.569V154.714H87.7881V57.0753ZM185.547 57.0753V42.9189H73.5928V154.735H87.7667V168.913H199.721V57.0753H185.547Z" fill="#FFCC00"/>
<path d="M214.967 196.605C214.967 200.31 216.211 203.373 218.72 205.75C221.207 208.148 224.08 209.348 227.318 209.348C230.856 209.348 233.837 208.127 236.26 205.686C238.683 203.223 239.905 200.224 239.905 196.691C239.905 193.114 238.705 190.116 236.303 187.696C233.923 185.254 230.964 184.033 227.447 184.033C223.952 184.033 220.993 185.254 218.57 187.696C216.168 190.094 214.967 193.071 214.967 196.605ZM209.885 196.541C209.885 191.808 211.622 187.76 215.074 184.355C218.527 180.949 222.665 179.257 227.511 179.257C232.293 179.257 236.41 180.971 239.82 184.397C243.251 187.824 244.966 191.936 244.966 196.733C244.966 201.552 243.229 205.664 239.798 209.027C236.324 212.41 232.143 214.102 227.254 214.102C222.923 214.102 219.02 212.603 215.568 209.605C211.772 206.264 209.885 201.916 209.885 196.541Z" fill="black"/>
<path d="M150.616 195.32L152.868 195.277C157.65 195.277 160.03 193.435 160.03 189.773C160.03 186.325 157.714 184.612 153.039 184.612L150.595 184.654V195.32H150.616ZM156.942 199.196L167.771 213.503H161.552L151.517 199.753H150.595V213.503H145.599V179.921L152.16 179.879C156.599 179.879 159.794 180.714 161.767 182.384C163.933 184.248 165.026 186.689 165.026 189.73C165.026 192.107 164.34 194.142 162.968 195.877C161.638 197.569 159.194 198.704 156.942 199.196Z" fill="black"/>
<path d="M178.385 179.879H173.389V213.481H178.385V179.879Z" fill="black"/>
<path d="M39.9914 200.546L45.0734 189.131L49.9196 200.546H39.9914ZM29.0125 213.481H34.309L37.9543 205.279H51.9138L55.3447 213.481H60.7269L46.0813 179.879H44.1943L29.0125 213.481Z" fill="black"/>
<path d="M120.253 200.546L125.314 189.131L130.16 200.546H120.253ZM126.343 179.879H124.456L109.274 213.481H114.57L118.194 205.279H132.154L135.585 213.481H140.967L126.343 179.879Z" fill="black"/>
<path d="M191.701 208.384V179.879H186.641V213.481H209.328V208.384H191.701Z" fill="black"/>
<path d="M98.8956 179.879H97.1158L85.2363 203.458L73.7643 179.879H71.9631L64.7153 213.46H70.5049L74.4933 193.157L84.2285 213.503H86.0512L96.108 193.178L99.6675 213.46H105.414L98.8956 179.879Z" fill="black"/>
</svg>
